<?xml version="1.0" encoding="UTF-8"?>
<svg id="Layer_1" xmlns="http://www.w3.org/2000/svg" viewBox="0 0 886.94 996.07">
  <defs>
    <style>
      .cls-1 {
        fill: #50824b;
      }
    </style>
  </defs>
  <path class="cls-1" d="M871.54,723.58l-1.4-2.51v-10.74c0-.32-.16-.6-.44-.76l-3.41-1.97-.06-7.8c0-.19-.07-.38-.18-.53l-5.55-7.07c-.16-.21-.41-.33-.68-.33-.24.01-.51.11-.68.31-1.14,1.38-2.39,3.03-2.92,3.74h-4.97c-.48,0-.87.4-.87.87v10.59l-2.03.11c-.34.02-.64.23-.77.54l-.98,2.46h-.73l-1.39-2.29c-.17-.28-.49-.44-.82-.42l-3.31.3c-.47.05-.82.46-.79.94.2,2.49.48,9.54-.68,12.2-.65,1.5-.73,1.55-1.09,1.75-.56.34-1.5.89-3.73,3.43-1.33,1.51-2.06,2.75-1.34,3.85-.84.71-3.29,2.2-4.18,2.74-4.37,2.67-4.95,3.33-5.29,3.73-.15.16-.33.25-3.32,1.53l-1.95.83c-4.33,1.87-5.15,2.9-5.33,3.81-.74.17-2.88.42-4.79.63-10.6,1.2-13.8,1.95-13.92,1.98-.21.05-.4.17-.51.35-.39.55-9.47,13.7-9.78,24.36-.22,7.64.72,14.29,1.35,18.71.23,1.65.42,2.95.46,3.76.13,2.58.37,6.39.44,7.41-.75,1.29-4.65,7.97-9.45,15.04-2.8,4.12-4.69,6.64-5.94,8.31-1.24,1.65-1.8,2.4-2,3.06-.4,1.4,2.2,17.8,3.3,21.81.28,1.03.55,1.85.78,2.54.71,2.16.92,2.82,0,5.19-.27.7-.54,1.31-.79,1.89-1.05,2.38-1.87,4.27-1.36,7.86.2,1.41.14,2.46.08,3.39-.12,1.76-.2,3.14,1.96,4.58.56.38,1.17.76,1.78,1.14,2.28,1.41,4.63,2.88,5.59,4.7.45.84.64,1.6.81,2.26.31,1.2.66,2.56,2.66,2.56.57,0,1.24.11,1.95.21.75.12,1.51.24,2.24.24,1.21,0,2.08-.35,2.66-1.08.85-1.07,3.28-2.72,4.38-3.43h9.37c.27,0,.52-.13.69-.33.14-.17,14.25-18.1,19.94-30.53,3.18-6.94,8.43-22.33,13.99-38.63,4.61-13.51,9.38-27.48,13.67-38.81,7.41-19.58,8.98-26.38,9.29-28.59h1.45c.9,2.38,2.23,4.93,3.72,4.93.32,0,.62-.11.88-.31,1.4-1.1,3.89-4.27,4.09-5.83.15-1.22.02-16.55,0-18.3,0-.15-.04-.29-.11-.42h-.03Z"/>
  <path class="cls-1" d="M885.73,343.27c-1.8-3.6-2.43-4.55-2.46-4.59-.14-.21-.36-.35-.61-.38-.24-.03-.5.05-.69.21-.12.1-11.07,9.8-19.46,11.82-3.4.82-6.07,1.56-8.2,2.15-3.36.93-5.59,1.55-7.89,1.73-1.12.09-2.67.13-4.55.13-3.2,0-6.31-.13-6.3-.11-.09-.02-.59-.14-1.36-.14-1.31,0-3.82.37-5.83,2.84-1.9,2.32-3.14,3.04-3.55,3.24-.87-.26-3.5-.99-6.17-.99-1.65,0-3.03.27-4.12.82-1.35.67-2.42,1.47-3.37,2.17-1.68,1.25-3.02,2.24-5.25,2.24-.98,0-1.85.06-2.68.11-2.15.14-3.93.48-6.79-1.19-.99-.57-1.86-1.02-2.66-1.42-2.14-1.08-3.56-1.79-5.18-4.05-1.98-2.72-3.15-4.24-3.51-4.69l-.04-.15c-.49-1.92-3.14-11.83-6.36-18.14v-.02c-.28-.55-.57-1.08-.85-1.56-2.74-4.64-7.8-8.48-11.49-11.28-1.62-1.22-3-2.28-3.62-2.99l-.39-.45c-.5-.58-.58-.67-.9-.81-.73-.33-3.34-2.49-5.41-4.24-7.71-6.52-9.85-8.36-9.86-8.36-.09-.09-.53-.49-2.8-2.19-1.41-1.06-2.89-1.71-4.45-2.4-1.2-.53-2.45-1.09-3.74-1.85-2.42-1.45-4.67-2.92-5.42-3.41-.83-2.76-6.7-22.03-8.96-27.15-1.41-3.19-1.99-3.74-2.64-4.37-.43-.42-.92-.88-1.91-2.63-.71-1.23-1.26-2.2-1.68-2.97-.99-1.78-1.29-2.37-1.3-2.39-.17-.36-.58-.54-.96-.46,0,0-.48.1-1.25.1-2.49,0-8.65-1.07-12.17-10.96-3.64-10.26-3.8-11.58-4.2-15.11-.13-1.1-.28-2.42-.56-4.26-1.18-7.69-3.78-13.62-5.87-18.4l-.2-.46c-.24-.55-.47-1.05-.69-1.5-1.78-3.72-3.02-4.45-6.12-5.57-2.72-.99-6.81-3.74-7.92-4.51-.67-3.43-4.3-21.66-6.1-24.05-.76-1.01-1.69-1.17-2.51-1.33-1.63-.3-3.86-.71-7.63-8.44-5.64-11.57-13.43-29.25-13.6-29.6-.47-.62-11.52-15.29-14.28-17.44-.95-.74-1.91-.98-2.62-.85-.14-.56-.3-1.63-.36-2.03-.47-3.17-.7-4.28-.95-5.48-.15-.74-.32-1.5-.55-2.82-.42-2.41-.14-3.86-.08-4.05,0,0,.14.04.41.3.59.59,1.23,1.86,1.97,3.32,1.26,2.5,2.97,5.92,5.86,8.7,3.29,3.18,6.52,7.96,8.46,10.81.69,1.02,1.22,1.79,1.53,2.18,1.35,1.68,5.28,2.74,5.73,2.85.11.03.22.04.34.02l1.06-.15c.39-.06.69-.36.74-.74.02-.12,1.67-11.39,2.56-19.72.36-3.37,1.43-3.69,2.15-3.91.39-.12.96-.28,1.18-.89.3-.8-.07-1.56-2.57-5.39-2.33-3.58-3.58-7.7-4.68-11.34-1.46-4.85-2.61-8.67-5.84-8.67-.29,0-.6.04-.91.11-2.14.47-4.26,1.24-6.32,1.98-3.2,1.15-6.51,2.34-10.07,2.52-2.18.11-3.64.21-4.74.3-1.83.14-2.53.19-3.81,0-1.48-.21-1.68-.24-2.28-3.5-.21-1.19.39-1.96.79-2.46.26-.33.62-.78.35-1.34-.15-.3-.63-.54-.96-.54s-.84.1-2.09.35c-1.94.39-5.09.55-8.13.72-4.09.21-7.95.42-9.75,1.13-3.05,1.22-6.22,2.79-8.77,5.97-.72.89-1.22,1.77-1.67,2.56-1.19,2.07-1.74,2.71-3.76,2.25-.63-.15-.85-.17-1.02-.17-.18,0-.35.06-.49.15-1.64-.47-4-1.18-5.95-1.76-6.07-1.82-9.93-3.51-13.04-4.87-4.55-1.99-7.29-3.1-11.68-2.37-5.22.87-9.17,2.04-11.02,2.65-.19-2.24-1.42-6.6-7.97-7.7h-.08s-.06-.02-.09-.03l-.26-.04c-1.95-.27-3.61-.4-5.21-.4-.69,0-1.26.02-1.78.04-1.94.08-2.86.15-5.91-1.64-2.03-1.19-3.1-2.39-4.13-3.56-1.56-1.76-3.03-3.43-7.33-3.93-5.96-.68-5.98-.61-9.51.16-.61.14-1.32.28-2.17.47-2.95.61-12.89,2.87-16.39,6.57-.86.91-1.79,1.42-2.61,1.87-1.59.88-3.24,1.78-2.25,4.99.5,1.64,1.09,3.07,1.61,4.34.73,1.79,1.36,3.33,1.51,4.82.13,1.12.32,1.81.46,2.32.2.7.22.79-.08,1.41-.42.81-5.23,5.32-9.83,9.37-1.2-.77-4.2-2.75-7.18-5.16-3.9-3.15-11.63-7.98-11.96-8.18-.15-.09-.36-.15-.47-.14-.31,0-7.73.16-10.15.46-.7.09-1.54.33-2.44.59-1.34.39-2.85.82-4.12.82-.99,0-1.67-.25-2.12-.8-.88-1.07-1.78-1.31-2.44-1.49-.98-.27-1.82-.49-2.63-5.46-.63-3.87-.56-5.59-.52-6.52.06-1.35-.11-1.67-1.31-2.6-.06-.05-.11-.09-.14-.12.13-.2.3-.57.12-1.02-.26-.63-.84-.83-3.67-1.29-2.62-.43-3.9-.55-4.85-.65-1.05-.11-1.57-.15-3.03-.54-2.81-.75-11.9-3.42-12-3.45-.21-.06-.44-.04-.64.06-2.14,1.07-6.01,2.77-7.35,2.77-1.1-.1-5.73-2.54-8.65-4.24-.23-.14-.54-.16-.79-.07-.33,0-1.56-.2-3.44-2.78h0c-.14-.2-.29-.41-.44-.64-1-1.5-1.62-2.75-2.06-3.66-.95-1.92-1.68-3.21-3.88-2.04-.97.51-1.71,1.19-2.27,1.68-.17.15-.4.36-.54.48-.15-.34-.31-.83-.46-1.36-.46-1.53-1.08-3.62-2.87-4.94-1.01-.75-2.3-.85-3.33-.93-.67-.06-1.49-.13-1.66-.37-.04-.06-.21-.42.19-1.63.61-1.82.62-3.12.64-4.08.02-1.45.02-1.94,2.12-3.1,1.08-.59,2.25-1.1,3.38-1.57,3.11-1.32,6.34-2.68,6.97-6.09.77-4.16.79-4.61-.9-6.98-.54-.76-1.27-1.16-1.92-1.52-1.31-.72-2.09-1.16-.12-4.92,2.02-3.86,2.88-4.76,3.5-5.42.42-.44.8-.84,1.31-1.78.24-.45.48-.82.68-1.15.82-1.33,1.53-2.46-.38-4.38-.91-.91-1.86-1.36-2.91-1.36-1.11,0-2.13.5-3.21,1.05-1,.49-1.34,1.38-1.56,1.95,0,0,0,.02,0,.03-.17-.12-.4-.31-.75-.64-.77-.72-1.13-1.33-1.48-1.92-.95-1.58-1.74-2.58-6.07-3.11-5.93-.75-8.47-.79-11.28,1.2-2.11,1.49-3.89,2.96-4.51,3.47-.97.07-4.28.31-6.98.31-2.41,0-3.11-.18-3.3-.26-.11-.04-.17-.08-.19-.1-.07-1.38-1.35-1.48-3.45-1.48s-3.32.27-4.09.45c-.28.07-.51.13-.65.13-.06,0-.14,0-.36-.14-1.18-.74-3.12-2.08-3.12-2.08-.3-.2-.7-.2-1,0-.02,0-1.49,1.04-4.23,2.34l-.75.36c-2.38,1.14-4.45,2.12-6.44,2.12h-.35c-2.35-.15-5.81-1.72-5.84-1.73-.14-.06-.27-.09-.42-.08l-17.37,1.07-13.11,2.24-14.3-1.34c-.2-.02-.4.03-.56.14l-14.79,9.77-9.05-.15c-.12.02-.29.04-.43.11l-11.35,6.04-.35-.03-8.77-.79-.5-3.24c-.04-.26-.19-.49-.43-.62-.23-.13-.51-.16-.76-.06-.06.02-6.05,2.37-12.23,2.37-6.95,0-11.29-2.9-12.89-8.63-.07-.25-.26-.47-.5-.57-.25-.11-.52-.09-.76.04-1.36.76-2.22.82-3.05.89-.73.06-1.47.12-2.35.6-1.31.71-2.35,2.96-3.96,6.57-.62,1.4-1.27,2.85-1.95,4.17-2.28,4.39-7.87,12.34-10.63,13.92-2.94,1.68-6.63,2.57-10.2,3.42l-.39.1c-.54.14-1.08.25-1.63.38-3.16.71-6.42,1.43-9.54,4.01-3.48,2.88-8.9,9.46-9.13,9.73-.13.16-.2.38-.19.59.06,1.24.11,3.43.02,3.97-.32,1.04-5.84,9.71-7.65,12.56l-.34.54c-1.61,2.53-1.19,4.22-.79,5.84.18.75.36,1.45.36,2.29,0,2.27.53,4.24.8,5.11l-11,14.89c-.1.14-.15.28-.17.45-.12,1.43-.47,3-.6,3.21-.31.07-.88.08-1.54.08-1.05,0-2.49,0-4.19.29-.6.1-1.17.17-1.72.23-2.13.27-3.97.49-5.36,1.89-.76.76-1.02,1.26-1.25,1.72-.26.5-.5.98-1.65,2.02-.98.87-1.45,1.69-1.81,2.28-.5.84-.64,1.08-1.76,1.11-2.64.08-5.64,0-7.9.08-2.54.09-4.28,1.27-5.78,2.54-1.07.9-3.09,3.26-6.03,7.03,0,0,0,.02-.02.03,0,.01-.03.02-.04.04l-.66.85c-2.04,2.66-2.48,3.71-2.53,3.83-.05.13-.07.3-.05.44,0,.02.17,2.16-4.08,4.61-5.13,2.95-11.4,8.21-13.87,13.3-1.13,2.34-1.45,4.36-1.7,5.99-.3,1.91-.51,3.28-1.83,4.4-1.09.91-2.34,1.63-3.54,2.32-1.9,1.09-3.86,2.2-5.31,4.14-1.29,1.72-1.63,2.74-2.12,4.26-.41,1.23-.95,2.93-2.33,5.79-.53,1.12-1.01,2.15-1.45,3.11-2.03,4.41-3.26,7.07-5.8,9.05-2.95,2.28-4.4,4.1-4.75,4.57-.79.62-4.82,4.2-6.09,13.42-.14.95-.26,1.81-.4,2.61-1.04,6.29-1.96,7.46-1.93,7.46-.22.15-.36.38-.39.64-.02.26.07.52.26.71.07.07,7.08,7.01,6.95,12.12-.1,3.54-1.46,7.8-2.36,10.62-.64,2.01-.86,2.73-.78,3.23.07.4.31.75.73,1.34,1.07,1.53,3.04,4.39,2.29,9.04-.9,5.54-2.41,14.83-5.14,19.37-1.4,2.33-1.91,5.03-2.27,7.6l-.17,1.36c-.24,1.9-.47,3.69-1.03,4.76l-.69,1.33c-1.78,3.47-5.1,9.93-8.01,12.73-3.69,3.53-3.37,5.03-1.51,8.41.32.58.86,1.49,1.53,2.61,1.79,3.01,7.27,12.13,6.61,13.63-.46.71-1.06,1.32-1.7,1.97-1.14,1.15-2.43,2.47-3.06,4.57-.84,2.79,1.45,3.69,2.56,4.13.16.06.38.14.53.22-.11.23-.33.57-.49.82-.54.83-1.15,1.77-1.02,2.79.02.13.05.25.09.38.56,1.68,5.54,6.53,6.48,7.2l.4.29c.98.74,2.2,1.68,4.3,1.37.69-.11,1.55-.35,2.45-.61.89-.25,1.89-.54,2.59-.61.03,1.45-.21,5.49-.4,6.86-.18.18-.31.45-.33.7-.06,1.09.62,5.2,3.21,5.46,1.57.16,2.71.52,3.2.72l.13.26,1.05,2.15c-.09.91-.25,3.9.91,5.72.7,1.1,2.14,2.26,3.66,3.49,1.25,1.01,2.54,2.05,3.13,2.86.57.8,1.09,1.37,1.5,1.83.55.61.82.93.9,1.3.09.42.1.72.11.99,0,.42.02.85.24,1.4.25.62.68.92,1.05,1.18.29.2.57.4.85.8.62.87,2.46,2.95,3.29,3.88-.26,1.29-.85,4.82,0,6.78.3.71.65,1.28.98,1.82.65,1.08,1.09,1.79.92,3.14-.08.63-.35,1.08-.6,1.51-.31.52-.68,1.12-.47,1.87.19.7.8,1.28,2.12,2,3.43,1.87,4.17,2.73,4.37,3.76.2,1.02,1.16,1.84,2.18,2.71.85.73,1.81,1.56,2.05,2.33.62,2.02,1.85,3.46,3.87,4.57l6.15,3.35h0s.08.04.12.06l.15.07c1.42,1.27,34.96,31.12,45.54,34.44,2.28.72,4.62,1.07,6.97,1.07.37,0,.73,0,1.09-.03h.04c7.36-.36,13.72-4.05,18.95-7.63,2.52-1.72,6.84-2.56,13.22-2.56,1.84,0,3.6.07,5.11.13,1.15.04,2.16.08,2.97.08,1.25,0,1.86-.09,2.26-.32.06-.04.3-.15,1.03-.15.87,0,2.02.17,3.14.32,1.68.24,3.43.45,4.44.23,1-.21,1.4-.58,1.62-1.03.02,0,.56-.12,2.05,0,2.56.19,3.59.49,4.94,1.1.54.24,1.12.53,1.83.88l2.59,1.26c3.84,1.85,5.76,2.78,6.93,2.78.12,0,.21,0,.32.02.15,0,.32.03.51.03,1.11,0,2.95-.46,8.21-2.68,1.65-.69,3.17-1.31,4.58-1.88,5.11-2.06,8.8-3.55,12.29-6.19,2.03-1.54,2.51-2.4,2.8-2.93.17-.31.21-.38,2.54-.82,1.94-.36,4.28-.25,6.02-.1.73.07,1.38.13,1.93.13.73,0,1.64-.08,2.27-.71.82-.82,1.18-1.75,1.34-2.41.48.02,1.13.04,1.94.04,1.76,0,3.48-.08,5.11-.24,2.87-.28,5.35-.79,7.37-1.54,2.16-.79,4.2-1.46,6.21-2.05,1.27-.37,2.24-.61,2.94-.79.55-.14.95-.24,1.17-.31.2-.05,1.26-.14,3.23-.14,3.53,0,7.97.27,9.4.86,2.45,1.01,8.54,3.97,10.67,6.25,1.01,1.08,1.78,1.4,2.34,1.65.66.28,1.06.45,1.84,2.57.79,2.1,1.21,2.63,1.43,2.82.03.16.02.45.02,1.09,0,2.61,1.18,6.59,2.43,8.2.28.36.37.68.46,1.06.26.97.62,1.81,2.36,2.39.2.07.33.12.42.15.25.36.75.39,1.38.43.56.03,1.56.09,3.37.21,2.35.17,3.87.51,5.08.79,1.04.24,1.94.45,2.96.45,1.14,0,2.34-.26,3.9-.84,1.38-.51,2.24-.91,2.91-1.21,1.56-.71,1.84-.83,5.65-.83,2.29,0,3.86.21,5,.36,2.01.27,2.98.23,3.96-.55.62-.49,1.11-1.15,1.51-1.68.15-.2.34-.45.47-.62.14.22.18.35.23.47.2.57.44,1,2.6,3.37,1.16,1.27,1.65,2.28,2.07,3.17.71,1.47,1.31,2.74,4.25,3.96,1.72.72,3.01.8,3.95.86,1.42.1,1.76.12,2.45,2.48,1.35,4.62,1.77,6.19,1.77,8.47s0,5.16-.27,6.25c-.28,1.11-.54,3.55-.61,4.19-.18.38-.7,1.51-1.36,3.02-1.29,2.99-2.95,7.15-3.6,10.1-.62,2.85-.54,3.68-.42,4.91.07.75.13,1.63-.05,3.46-.19,2.08.02,3.07.17,3.8.18.88.29,1.37-.85,4.06-2.12,4.99-2.14,5.08-2.91,8.89-.19.98-.39,1.86-.57,2.68-.52,2.4-.95,4.3-.95,6.5,0,2.36.31,8.23,3.19,11.96.88,1.14,1.38,2.24,1.91,3.4.94,2.07,1.91,4.22,5.03,6.53,1.56,1.16,3.47,2.41,5.49,3.74,3.85,2.52,8.2,5.38,10.12,7.7.94,1.12,1.78,2.21,2.5,3.19h0c1.49,2.02,2.45,3.51,2.47,3.51l5.74,13.59c1.89,4.47,3.9,9.25,5.46,12.97l1.08,2.56c.61,1.45,1.09,2.61,1.39,3.32,1.37,3.32,4.62,6.14,7.01,8.2,1.25,1.09,2.54,2.2,2.75,2.74.25.65.31,1.43.38,2.42.12,1.61.28,3.83,1.41,7.03.71,2,1.33,3.26,1.78,4.17.71,1.42.97,1.94.73,3.53-.33,2.2-2.43,5.36-3.57,7.05-.31.47-.56.84-.69,1.07-.5.87-.04,2.08.65,3.91.6,1.6,1.36,3.59,1.65,5.8.32,2.41,1.22,4.35,2.17,6.41.9,1.96,1.93,4.17,2.65,7.2.58,2.45,1.17,3.53,1.6,4.31.58,1.07.77,1.42-.11,5.83-.61,3.03-.92,4.79-1.13,6.02-.31,1.77-.42,2.38-.94,4.12-.93,3.08-5.87,10.01-7.98,12.97-1.05,1.46-1.67,1.93-2.23,2.34-1.19.88-1.9,1.56-3.6,6.29-.87,2.41-1.58,4.04-2.15,5.35-1.2,2.75-1.81,4.14-1.81,8.18,0,2.53.34,3.62.59,4.43.28.89.41,1.31-.54,3.99-.79,2.25-.89,2.97-.84,3.41-.12.23-.43.76-.89,1.55-.78,1.33-1.26,1.8-1.62,2.15-.8.78-1.02,1.2-1.2,3.63-.2,2.63-.3,6.06-.3,10.29v5.91l.02,5.33c-.06.25-1.26,6.21,2.03,9.52,2.37,2.37,5.76,6.92,9.33,11.74l2.61,3.5c4.05,5.4,6.08,9.56,7.05,14.37.9,4.54,2.09,7.54,2.15,7.67.06.15.17.28.29.37.03.03,3.25,2.51,8.15,12.32,3.72,7.43,3.34,15.16,3.04,21.36-.11,2.14-.2,4.16-.13,5.94.3,6.87,3.57,20.12,4.54,23.08.94,2.82,3.3,11.12,4.18,15.53.58,2.93.93,3.67,1.56,5.02.36.79.81,1.75,1.48,3.53.83,2.23.98,2.45,1.33,2.67.11.13.51.78,2,4.27,1.35,3.18,1.33,4.64,1.32,5.51-.02,1.88.58,2.16,3.93,3.66,3.75,1.69,5.39,2.44,6.09,2.76l.19.09c1.24,2.95,10.98,26.01,14.76,34.13l1.5,3.2c2.65,5.64,2.93,6.23,2.93,8.76,0,1.5.26,2.17.44,2.62.14.35.18.46-.36,1.7-.34.76-.65,1.26-.93,1.69-.77,1.22-1.21,2.05-1.1,5.01.15,4.2,1.98,10.16,3.13,12.12,1.02,1.73,2.35,4.84,2.36,4.87.09.22.27.4.49.47.08.03,8.07,3,11.56,5.18,2.61,1.63,6.04,3.5,9.4,3.5.91,0,1.78-.14,2.61-.41,1.15-.39,2.28-.92,3.46-1.48,2.7-1.28,5.77-2.73,10.96-3.44,6.95-.95,12.66-1.35,19.71-1.35,4.61,0,11.6-1.02,20.76-3.02,5.51-1.21,9.75-2.02,13.31-2.54,4.06-.61,5.87-.91,5.87-.91.15-.03.31-.1.43-.2.16-.14,15.58-13.46,26.26-21.92,4.77-3.77,7.76-5.7,9.94-7.1,2.78-1.79,4.18-2.68,5.87-5.27,2.04-3.11,2.6-4.33,3.71-6.74.47-1.03,1.06-2.29,1.9-4.02,1.16-2.39,1.63-4.02,2.01-5.33.55-1.95.89-3.13,3.1-5.42,3.52-3.65,6.75-5.8,8.68-7.07l.48-.32c2.27-1.51,4.02-3.49,4.86-4.54,1.28-1.61,7.16-10.68,10.54-22.93,0,0,0-.01,0-.02,1.63-5.91,2.71-8.76,3.24-10.13.54-1.41.81-2.12-.37-2.79-.38-.22-1-.4-2.05-.69-.9-.24-2.66-.74-3.28-1.14,1.7-1.62,10.58-7.76,18.76-9.63,3.1-.71,5.26-.87,7.01-1,2.98-.22,4.79-.36,7.02-3.23.65-.83,1.19-1.5,1.65-2.06,1.76-2.18,2.35-2.92,2.88-5.52.57-2.88.61-3.89.6-3.91.11-.59,2.71-14.38,3.17-19.62l.16-1.72c.28-3.09.3-3.28-.67-5.16l-.33-.64c-1.18-2.36-1.12-2.96-.72-6.81l.21-1.94c.38-3.37.58-5.23-.99-8.38-.74-1.47-1.53-2.39-2.24-3.21-.93-1.08-1.66-1.91-2.05-3.8-.14-.66-.28-1.28-.42-1.86-.65-2.76-.83-3.93,0-4.43.64-.37,1.72-.58,3.03-.58.85,0,1.5.09,1.52.09.28.04.57-.07.77-.28,11.83-12.99,31.83-33.82,35.12-34.44.9-.16,1.85-.2,2.87-.24,4.39-.16,9.85-.35,19.23-10.23,11.05-11.64,14.54-20.55,14.95-23,.31-1.87.02-8.9,0-9.03.02-.16,2.27-15.29,2.71-22.16.18-2.89.09-4.7.01-6.3-.12-2.26-.2-3.88.57-7.4.59-2.67.99-4.02,1.32-5.12.42-1.39.69-2.31.95-4.75.14-1.24.35-2.03.51-2.66.46-1.69.52-2.4-1.27-4.98-.18-.27-.37-.52-.55-.76-2.29-3.04-4.19-3.94-6.88-4.55-1.07-.24-1.88-.32-2.48-.38-.14-.01-.27-.03-.4-.04.33-2.11,1.8-12.52-.27-17.12-.81-1.81-1.52-3.08-2.08-4.1-.86-1.56-1.3-2.35-1.3-3.51s.31-1.71.87-2.69c.37-.66.83-1.48,1.32-2.68.34-.84.76-1.24,1.12-1.59,1.41-1.33,1.04-2.27-.95-4.83-1.07-1.38-2-2.22-2.61-2.78-.32-.29-.68-.62-.72-.68.04-.16.38-.59,1.02-1.27,1.13-1.21,1.79-1.45,2.13-1.59.24-.09.6-.23.78-.64.19-.44.05-.81-.19-1.4-.29-.74-1.07-1.08-2.04-1.51-2.11-.94-5.3-2.37-5.41-8.39-.16-9.05.17-10.68,1.13-13.03l.5-1.26c.75-1.9,2.01-5.08,3.64-8.62,2.1-4.54,4.22-8.28,6.27-11.13,2.65-3.69,4.13-7,5.42-9.92,1.42-3.19,2.64-5.94,5.04-8.65,1.94-2.18,2.89-3.07,3.73-3.87,1.24-1.17,2.32-2.19,5.92-6.69.54-.68,1.07-1.34,1.56-1.98,4.56-5.83,7.28-9.91,7.73-10.61,2.22-1.94,43.33-37.95,55.85-50.77,8.94-9.15,12.62-15.34,15.58-20.32,1.37-2.29,2.54-4.26,4.01-6.2,3.3-4.34,6.45-10.32,8.97-15.13,1.2-2.29,2.24-4.26,3.1-5.69,1.16-1.94,2.03-2.9,2.67-3.6.84-.92,1.45-1.59,1.66-3.37.24-2.16.29-3.38.31-3.82,1.17-2.73,16.97-39.59,21-53.44,4.22-14.49,4.59-17.48,2.65-21.37l-.07-.04Z"/>
</svg>