<?xml version="1.0" encoding="UTF-8"?>
<svg id="Layer_1" xmlns="http://www.w3.org/2000/svg" viewBox="0 0 164 164">
  <defs>
    <style>
      .cls-1, .cls-2, .cls-3 {
        fill: #276432;
      }

      .cls-4 {
        fill: #e3e3c5;
        stroke-width: 4px;
      }

      .cls-4, .cls-2 {
        stroke: #acac97;
      }

      .cls-4, .cls-2, .cls-3 {
        stroke-miterlimit: 10;
      }

      .cls-2 {
        stroke-width: 2.31px;
      }

      .cls-5 {
        fill: #51824b;
      }

      .cls-3 {
        stroke: #276432;
        stroke-width: .5px;
      }
    </style>
  </defs>
  <circle class="cls-4" cx="82" cy="82" r="80"/>
  <path class="cls-3" d="M82.01,82V12.53c38.37,0,69.48,31.11,69.48,69.47s-31.11,69.47-69.48,69.47c-9.21,0-16.3-1.31-24.9-4.61l24.9-64.86Z"/>
  <g>
    <path class="cls-2" d="M82,12c-15.46,0-28.63,4.28-41.14,13.37C9.58,48.09,2.65,91.87,25.37,123.14c13.63,18.77,33.43,28.85,56.63,28.85,38.66,0,70-31.34,70-70S120.66,12,82,12Z"/>
    <path class="cls-5" d="M82,82l-56.63,41.14C2.65,91.87,9.58,48.09,40.86,25.37c12.51-9.09,25.68-13.37,41.14-13.37v70Z"/>
    <path class="cls-1" d="M82,82V12c38.66,0,70,31.34,70,70s-31.34,70-70,70c-23.2,0-43-10.09-56.63-28.85l56.63-41.14Z"/>
  </g>
</svg>