<svg width="67" height="44" viewBox="0 0 67 44" fill="none" xmlns="http://www.w3.org/2000/svg">
<path d="M0.0436628 42.8658C-0.0339152 19.5474 -0.683632 24.4573 7.12751 0.644599C7.94693 2.25861 23.8892 1.55581 24.6553 -3.593e-05C24.8977 0.72215 20.2721 20.7785 19.2345 21.0936C19.3897 21.1372 28.8833 20.5556 29.7221 19.8383C28.9124 20.2745 29.0579 44.1938 28.2821 43.1712C30.1585 43.6946 -0.266649 44.8869 0.0485115 42.8706L0.0436628 42.8658ZM36.6993 42.8658C36.6169 19.5426 35.972 24.4525 43.7831 0.639753C44.6026 2.25376 60.5448 1.55097 61.3109 -0.00488281C61.5534 0.717303 56.9278 20.7737 55.8902 21.0887C56.0453 21.1324 65.5389 20.5507 66.3777 19.8334C65.568 20.2696 65.7135 44.189 64.9377 43.1663C66.8141 43.6898 36.389 44.8821 36.7041 42.8658H36.6993Z" fill="#24631E"/>
</svg>
