<?xml version="1.0" encoding="UTF-8"?>
<svg xmlns="http://www.w3.org/2000/svg" id="uuid-74882d3b-6d54-414c-a9cb-5b3e307064ba" viewBox="0 0 267.75 78.00058048">
  <g id="uuid-0124710b-d6a2-4b7b-87da-5a457186b877">
    <path d="m232.27000427,31.45999908c0,.01000023-.00999451.01000023-.00999451.01000023-3.61999512-1.52000046-4.25999451-1.22999954-3.80000305-6.89999962,4.27999878,2.70000076,3.97999573,3.69000053,3.80999756,6.88999939m1.08999634-5.54999924c-.71000671-.94000053-2.38999939-2.46999931-3.27999878-3.38000107-1.36000061-1.39999962-1.71000671-1.81999969-1.71000671-4.20999908v-10.18999958c0-1.46000004-2.16999817-1.25-2.16999817.05000019,0,0-.1499939,17.72999954,0,19.23999977s-.57000732,2.68000031,1.75999451,4.21000099c2.58999634,1.68999863,6.30000305,2.81000137,6.30000305,2.81000137,0,0,.05000305-3.89999962.1000061-5.36000061.05999756-1.45000267-.30000305-2.23000145-1-3.17000198" style="fill:#2e753a; stroke-width:0px;"></path>
    <path d="m242.42999268,24.56999969c.44999695,5.68000031-.17999268,5.38000107-3.80999756,6.89999962v-.01000023c-.16999817-3.18999863-.47000122-4.18999863,3.80999756-6.88999939m-5.9099884,4.52000046c.05000305,1.45999908.1000061,5.34999847.1000061,5.34999847,0,0,3.72000122-1.11999893,6.30000305-2.80999947,2.33999634-1.53000069,1.61000061-2.70000076,1.75999451-4.21000099s0-19.23999977,0-19.23999977c0-1.30000019-2.16999817-1.51000023-2.16999817-.05000019v10.18999958c0,2.38999939-.3500061,2.80999947-1.71000671,4.21000099-.88000488.90999985-2.57000732,2.44000053-3.27999878,3.38000107-.69999695.94000053-1.05000305,1.71999931-1,3.18000031" style="fill:#2e753a; stroke-width:0px;"></path>
    <path d="m235.5,22.10000038c-4.16999817-2.29999924-1.19000244-5.43000031,0-7.48999977l.1000061.17000008c3.07998657,4.73999977,2.23999023,5.44999886-.1000061,7.31999969m2.80999756-6.55000019c-1.27000427-2.32999992,0,0-1.74000549-3.02999973V1.26999998c0-1.75999999-2.1499939-1.62-2.1499939,0l.02999878,11.23000002s-1.83999634,3.19000053-2.3500061,4.45999908c-.50999451,1.27000046-1.19999695,2.79000092.53999329,4.84000015.13000488.15999985.3500061.59000015,2.8999939,3.04999924l.05000305-.05999947s-.02000427-.01000023,2.22000122-2.28999901c2.75001526-2.82999992,1.76002502-4.62999916.50001526-6.94999981" style="fill:#2e753a; stroke-width:0px;"></path>
    <path d="m232.33000183,40.72999954c-3.24000549-1.27999878-5.3999939-1.61000061-11.24000549-2.82999802-5.83999634-1.20999908-9.33000183-2.31999969-12.49000549-5.73999786,5.07000732,2.00999832,13.19000244,2.74000168,17.61999512,3.70000076,4.43000793.96999741,5.64001465,2.1499939,6.11001587,4.86999512h0Zm1.86999512-1.06999969c-.1000061-2.20999908-.86000061-4.15999985-5.24000549-5.84999847-3.67999268-1.41999817-8.88999939-1.72999954-12.66999817-2.35000038-3.77999878-.62999916-10.05999756-1.69000053-13.19999695-4.78000069,2.3500061,8.06999969,8.25,11.45000076,14.24000549,12.77000046,6.77999878,1.5,12.86000061,2.11999893,16.55000305,4.77999878l.36999512.27000046c-.19999695-1.88000107.05999756-2.63000107-.05000305-4.84000015" style="fill:#2e753a; stroke-width:0px;"></path>
    <path d="m238.5,40.72999954c.47000122-2.70999908,1.67999268-3.90000153,6.11000061-4.86999893,4.42999268-.97000122,12.55000305-1.68999863,17.62001038-3.70000076-3.1499939,3.43000031-6.6499939,4.52999878-12.47999573,5.74000168-5.8400116,1.21999741-8.00001526,1.54999924-11.25001526,2.82999802h0Zm-1.91999817,3.75l.38000488-.27000046c3.69999695-2.65000153,9.77000427-3.27999878,16.55000305-4.77000046,5.98999023-1.31999969,11.88000488-4.70000076,14.23999023-12.77000046-3.14001465,3.09000015-9.42001343,4.15999985-13.19999695,4.78000069-3.77999878.62000084-8.99000549.94000053-12.66999817,2.3599987-4.38000488,1.68999863-5.13999939,3.63999939-5.24000549,5.84999847-.11999512,2.2100029.1499939,2.9600029-.05999756,4.82000351" style="fill:#2e753a; stroke-width:0px;"></path>
    <path d="m231.92999268,54.93000031h-2.86999512s.05999756-1.22000122-.1000061-3.33000183c-.22000122-2.77999878-3.36999512-3.02000046-8.53999329-4.51000214-3.55000305-1.02000046-8.18000793-2.33000183-10.25999451-5.98999786,1.25999451.56999969,3.77999878,1.66999817,7.8999939,2.54000092,3.91999817.83000183,6.16000366,1.29999924,9.77000427,2.08000183,3.42999268.74000168,4.1000061,2.90999985,4.1000061,5.29999924v3.90999985h-.00001526Zm2.05000305-5.01000214c.05000305-4.34000015-2.36000061-5.56000137-5.96000671-6.52999878-3.58999634-.97000122-8.6000061-1.70999908-12.86000061-2.97000122-4.25999451-1.27000046-6.61999512-2.09999847-9.5-5.31999969.61000061,6.29000092,4.86999512,10.72999954,10.11999512,12.63000107s4.96000671,1.50999832,7.80000305,2.24000168c2.83999634.72999954,3.36000061,1.79999924,3.36000061,3.61000061v3.70999908h7.05000305c.14001465-8.40000153-.05999756-3.03000259-.00999451-7.37000275" style="fill:#2e753a; stroke-width:0px;"></path>
    <path d="m238.77000427,51.02000046c0-2.38999939.66999817-4.56000137,4.1000061-5.29999924,3.61000061-.77999878,5.8500061-1.24000168,9.75999451-2.08000183,4.11999512-.86999893,6.6499939-1.97000122,7.8999939-2.54999924-2.07000732,3.65999985-6.69999695,4.97999954-10.25999451,6-5.16999817,1.47999954-8.31999207,1.72999954-8.53999329,4.50999832-.16999817,2.11000061-.1000061,3.33000183-.1000061,3.33000183h-2.86999512v-3.90999985h.00999451Zm-2.05000305,6.27000046h7.05000305v-3.70999908c0-1.79999924.52000427-2.88000107,3.36000061-3.61000061s2.55000305-.34999847,7.80000305-2.24000168c5.24998474-1.90000153,9.49998474-6.34000015,10.12001038-12.63000107-2.88000488,3.22000122-5.25,4.04999924-9.5,5.31000137-4.25,1.27000046-9.27000427,2-12.86000061,2.97000122-3.6000061.97000122-6.00999451,2.18999863-5.96000671,6.54000092.03999329,4.34999847-.15000916-1.01000214-.01000977,7.36999893" style="fill:#2e753a; stroke-width:0px;"></path>
    <path d="m219.75,77.59999847c-.8999939.22000122-1.88000488.40000153-2.82000732.40000153-4,0-6.78999329-2.05999756-6.78999329-6.37999725,0-4.37000275,2.58999634-6.81999969,6.78999329-6.81999969.82000732,0,1.8999939.16000366,2.80000305.52999878l-.17999268,2.16000366c-.94000244-.55000305-1.78999329-.66999817-2.67999268-.66999817-2.55000305,0-4.1499939,2.01000214-4.1499939,4.62000275,0,2.59999847,1.55999756,4.55000305,4.19999695,4.55000305.97999573,0,2.13000488-.22000122,2.71000671-.52999878l.11997986,2.13998413Z" style="fill:#2e753a; stroke-width:0px;"></path>
    <path d="m231.22999573,67.48999786c-.96000671-.45999908-2.19999695-.68000031-3.19000244-.68000031-2.88999939,0-4.47999573,2.01000214-4.47999573,4.62000275,0,2.59999847,1.55999756,4.55000305,4.19999695,4.55000305.66999817,0,1.19999695-.06999969,1.63000488-.18000031v-3.33000183h-2.61999512v-2.01000214h5v6.87000275c-1.30999756.37000275-2.67999268.66000366-4,.66000366-4.00999451,0-6.78999329-2.06999969-6.78999329-6.37999725,0-4.37000275,2.58999634-6.81999969,6.78999329-6.81999969,1.42999268,0,2.57000732.19999695,3.63000488.52999878l-.17001343,2.16999054Z" style="fill:#2e753a; stroke-width:0px;"></path>
    <rect x="234.16000366" y="65.01999664" width="2.47999573" height="12.76000214" style="fill:#2e753a; stroke-width:0px;"></rect>
    <path d="m244.16999817,67.58000183h.03999329l1.78999329,5.26000214h-3.61000061l1.78001404-5.26000214Zm-1.33000183-2.56000519l-4.82000732,12.76000214h2.57000732l1.08000183-2.93000031h5.00999451l1.05999756,2.93000031h2.75l-4.86000061-12.76000214h-2.78999329Z" style="fill:#2e753a; stroke-width:0px;"></path>
    <path d="m251.88000488,77.77999878h2.47999573v-5.30000305h.80000305c1.04000854,0,1.36999512.37000275,1.72000122,1.31999969l1.48999023,3.98999786h2.76000977l-1.98001099-4.98999786c-.25-.56999969-.64001465-1.26000214-1.30999756-1.31999969v-.04000092c1.57998657-.22000122,2.54998779-1.45999908,2.54998779-2.95999908,0-3.54000092-3.17001343-3.44999695-5.83000183-3.44999695h-2.66999817v12.75h-.00997925Zm2.47999573-10.75h.80999756c1.24000549,0,2.62001038.12999725,2.62001038,1.66000366,0,1.58999634-1.3999939,1.76999664-2.61999512,1.76999664h-.80999756v-3.43000031h-.00001526Z" style="fill:#2e753a; stroke-width:0px;"></path>
    <rect x="178.02999878" width=".71000671" height="78" style="fill:#939393; stroke-width:0px;"></rect>
    <path d="m54.34000015,9.90999985h-1.18000031V.44999999h1.18000031v9.45999986Z" style="fill:#62bb46; stroke-width:0px;"></path>
    <path d="m56.61999893,0l7.09999847,7.44000006V.44999999h1.17999649v9.8500002l-7.09999847-7.44000006v7.04999971h-1.18000031s0-9.90999985.00000381-9.90999985Z" style="fill:#62bb46; stroke-width:0px;"></path>
    <path d="m69.75,9.90999985h-1.18000031V1.52999997h-2.25V.44999999h5.68000031v1.07999998h-2.25v8.37999988Z" style="fill:#62bb46; stroke-width:0px;"></path>
    <path d="m73.55999756.44999999h5.08000183v1.07999998h-3.90000153v2.65000033h3.79000092v1.07999992h-3.79000092v3.57999992h3.90000153v1.07999992h-5.08000183V.44999999Z" style="fill:#62bb46; stroke-width:0px;"></path>
    <path d="m86.59999847,9.90999985h-1.43000031l-2.77999878-4h-.48999786v4h-1.18000031V.44999999h1.43000031c.83999634,0,1.73999786.00999999,2.5.44.79000092.46000004,1.23999786,1.35000002,1.23999786,2.26000011,0,1.3499999-.90000153,2.48000002-2.26999664,2.6500001l2.97999573,4.10999966Zm-4.69999695-4.98000002h.37999725c1.19999695,0,2.51000214-.23000002,2.51000214-1.73000002,0-1.48000002-1.40000153-1.69000006-2.56999969-1.69000006h-.31999969v3.42000008Z" style="fill:#62bb46; stroke-width:0px;"></path>
    <path d="m88.05000305,0l7.09999847,7.44000006V.44999999h1.18000031v9.8500002l-7.09999847-7.44000006v7.04999971h-1.18000031V0Z" style="fill:#62bb46; stroke-width:0px;"></path>
    <path d="m99.98000336,7.53999996l-1.08000183,2.36999989h-1.26999664L102.15000153.05000019l4.51999664,9.85999966h-1.26999664l-1.08000183-2.36999989h-4.33999634Zm2.16999817-4.90999985l-1.68000031,3.82999992h3.36000061l-1.68000031-3.82999992Z" style="fill:#62bb46; stroke-width:0px;"></path>
    <path d="m109.62999725,9.90999985h-1.18000031V1.52999997h-2.25V.44999999h5.66999817v1.07999998h-2.25v8.37999988h.01000214Z" style="fill:#62bb46; stroke-width:0px;"></path>
    <path d="m114.56999969,9.90999985h-1.18000031V.44999999h1.18000031v9.45999986Z" style="fill:#62bb46; stroke-width:0px;"></path>
    <path d="m126.20999908,5.17999983c0,2.80999994-2.22000122,4.92999983-4.94999695,4.92999983-2.73000336,0-4.94999695-2.11999989-4.94999695-4.92999983,0-2.71000004,2.25-4.92999983,4.94999695-4.92999983,2.70999908,0,4.94999695,2.22000003,4.94999695,4.92999983Zm-1.18000031,0c0-2.07999992-1.55999756-3.82999992-3.77999878-3.82999992s-3.77999878,1.74000001-3.77999878,3.82999992c0,2.16000032,1.73000336,3.8300004,3.77999878,3.8300004,2.05000305,0,3.77999878-1.67000008,3.77999878-3.8300004Z" style="fill:#62bb46; stroke-width:0px;"></path>
    <path d="m127.87000275,0l7.09999847,7.44000006V.44999999h1.17999268v9.8500002l-7.1000061-7.44000006v7.04999971h-1.18000031V0h.00001526Z" style="fill:#62bb46; stroke-width:0px;"></path>
    <path d="m139.80000305,7.53999996l-1.08000183,2.36999989h-1.27000427L141.97000122.05000019l4.52000427,9.85999966h-1.27000427l-1.08000183-2.36999989h-4.33999634Zm2.16999817-4.90999985l-1.67999268,3.82999992h3.36000061l-1.68000793-3.82999992Z" style="fill:#62bb46; stroke-width:0px;"></path>
    <path d="m149.08000183,8.82999992h2.86999512v1.07999992h-4.05000305V.44999999h1.17999268v8.37999994h.00001526Z" style="fill:#62bb46; stroke-width:0px;"></path>
    <path d="m54.36000061,17.54999924v2.65999985h3.29000092v1.07999992h-3.29000092v4.63999939h-1.18000031v-9.46000099h4.58000183v1.07999992s-3.40000153,0-3.40000153.00000191Z" style="fill:#62bb46; stroke-width:0px;"></path>
    <path d="m69.01000214,21.20000076c0,2.80999947-2.22000122,4.93000031-4.94999695,4.93000031-2.72999954,0-4.95999908-2.11999893-4.95999908-4.93000031,0-2.70999908,2.25-4.93000031,4.95999908-4.93000031,2.70999146,0,4.94999695,2.21999931,4.94999695,4.93000031Zm-1.18000031,0c0-2.07999992-1.55999756-3.82999992-3.77999878-3.82999992s-3.77999878,1.73999977-3.77999878,3.82999992c0,2.15999985,1.72999954,3.82999992,3.77999878,3.82999992,2.04999542-.01000023,3.77999878-1.68000031,3.77999878-3.82999992Z" style="fill:#62bb46; stroke-width:0px;"></path>
    <path d="m80.02999878,21.20000076c0,2.80999947-2.22000122,4.93000031-4.94999695,4.93000031-2.73000336,0-4.95999908-2.11999893-4.95999908-4.93000031,0-2.70999908,2.25-4.93000031,4.95999908-4.93000031,2.69999695,0,4.94999695,2.21999931,4.94999695,4.93000031Zm-1.18000031,0c0-2.07999992-1.55999756-3.82999992-3.77999878-3.82999992s-3.77999878,1.73999977-3.77999878,3.82999992c0,2.15999985,1.73000336,3.82999992,3.77999878,3.82999992,2.05000305-.01000023,3.77999878-1.68000031,3.77999878-3.82999992Z" style="fill:#62bb46; stroke-width:0px;"></path>
    <path d="m81.69999695,16.46999931h1.95999908c2.90000153,0,5.30999756,1.53000069,5.30999756,4.68000031,0,3.21999931-2.36000061,4.78000069-5.34000397,4.78000069h-1.92999268v-9.46000099Zm1.18000031,8.38000107h.41000366c2.41000366,0,4.48999786-.89999962,4.48999786-3.64999962,0-2.76000023-2.08000183-3.64999962-4.48999786-3.64999962h-.41000366v7.29999924Z" style="fill:#62bb46; stroke-width:0px;"></path>
    <path d="m96.19999695,25.93000031h-1.18000031v-9.45999908h1.34999847c2.91000366,0,3.80999756,1,3.80999756,2.72999954,0,1.98999977-1.51999664,2.76000023-3.30999756,2.76000023h-.66999817v3.96999931Zm0-5.02000046h.37999725c1.19999695,0,2.51000214-.22999954,2.51000214-1.72999954,0-1.47999954-1.40000153-1.65999985-2.56999969-1.65999985h-.31999969v3.38999939Z" style="fill:#62bb46; stroke-width:0px;"></path>
    <path d="m111.09999847,21.20000076c0,2.80999947-2.22000122,4.93000031-4.94999695,4.93000031-2.73000336,0-4.95999908-2.11999893-4.95999908-4.93000031,0-2.70999908,2.25-4.93000031,4.95999908-4.93000031s4.94999695,2.21999931,4.94999695,4.93000031Zm-1.16999817,0c0-2.07999992-1.55999756-3.82999992-3.77999878-3.82999992s-3.77999878,1.73999977-3.77999878,3.82999992c0,2.15999985,1.73000336,3.82999992,3.77999878,3.82999992,2.04000092-.01000023,3.77999878-1.68000031,3.77999878-3.82999992Z" style="fill:#62bb46; stroke-width:0px;"></path>
    <path d="m114.05000305,24.85000038h2.87000275v1.07999992h-4.05000305v-9.45999908h1.18000031v8.37999916Z" style="fill:#62bb46; stroke-width:0px;"></path>
    <path d="m119.47000122,25.93000031h-1.18000031v-9.45999908h1.18000031v9.45999908Z" style="fill:#62bb46; stroke-width:0px;"></path>
    <path d="m128.75999451,18.27000046c-.67999268-.60000038-1.61000061-.93000031-2.5-.93000031-2.12000275,0-3.73999786,1.77000046-3.73999786,3.86000061,0,2.06999969,1.61000061,3.84000015,3.70999908,3.84000015.93000031,0,1.82000732-.35000038,2.52000427-.97999954v1.38999939c-.72999573.43000031-1.66000366.65999985-2.48000336.65999985-2.69999695,0-4.93000031-2.13999939-4.93000031-4.88000107,0-2.79999924,2.25-4.97999954,5.02999878-4.97999954.83000183,0,1.66999817.20000076,2.38000488.63999939v1.38000107h.00999451Z" style="fill:#62bb46; stroke-width:0px;"></path>
    <path d="m129.80999756,16.46999931h1.36000061l2.32000732,4.03999901,2.32000732-4.04000092h1.3500061l-3.08999634,5.34000015v4.11000061h-1.17999268v-4.11000061l-3.08003235-5.33999825Z" style="fill:#62bb46; stroke-width:0px;"></path>
    <path d="m59.08000183,41.93999863h-1.43000031l-2.77999878-4h-.49000168v4h-1.18000031v-9.45999908h1.43000031c.84000015,0,1.74000168.00999832,2.5.43999863.79000092.45999908,1.24000168,1.34999847,1.24000168,2.25999832,0,1.34999847-.90000153,2.47999954-2.27000046,2.65000153l2.97999954,4.11000061Zm-4.7100029-4.97999954h.38000107c1.20000076,0,2.50999832-.22999954,2.50999832-1.72999954,0-1.47999954-1.40000153-1.68999863-2.56999969-1.68999863h-.31000137v3.41999817h-.00999832Z" style="fill:#62bb46; stroke-width:0px;"></path>
    <path d="m60.63000107,32.47999954h5.07999802v1.08000183h-3.90000153v2.65000153h3.79000092v1.08000183h-3.79000092v3.57999802h3.90000153v1.08000183h-5.08000183s0-9.47000504.00000381-9.47000504Z" style="fill:#62bb46; stroke-width:0px;"></path>
    <path d="m72,34.27999878c-.34999847-.59000015-.80000305-.88999939-1.51999664-.88999939-.75,0-1.58000183.50999832-1.58000183,1.34000015,0,.74000168.73000336,1.13000107,1.31999969,1.34999847l.68000031.25999832c1.33999634.52999878,2.34999847,1.27000046,2.34999847,2.84999847,0,1.72000122-1.33000183,2.95000076-3.01999664,2.95000076-1.52999878,0-2.72000122-1.13000107-2.91999817-2.65000153l1.19000244-.25c-.01000214,1.04000092.81999969,1.79000092,1.83000183,1.79000092,1.01999664,0,1.73999786-.84999847,1.73999786-1.84000015,0-1.02000046-.81999969-1.45999908-1.62999725-1.79000092l-.65000153-.27999878c-1.08000183-.45999908-2.05999756-1.08000183-2.05999756-2.40000153,0-1.52999878,1.34999847-2.45000076,2.77999878-2.45000076,1.05000305,0,1.91999817.50999832,2.43000031,1.43000031l-.94001007.58000565Z" style="fill:#62bb46; stroke-width:0px;"></path>
    <path d="m75.16000366,32.47999954h5.08000183v1.08000183h-3.90000153v2.65000153h3.79000092v1.08000183h-3.79000092v3.57999802h3.90000153v1.08000183h-5.08000183v-9.47000504Z" style="fill:#62bb46; stroke-width:0px;"></path>
    <path d="m83.66999817,39.56999969l-1.08000183,2.36999893h-1.26999664l4.51999664-9.86000061,4.51999664,9.86000061h-1.26999664l-1.08000183-2.36999893h-4.33999634Zm2.16999817-4.90000153l-1.68000031,3.83000183h3.36000061l-1.68000031-3.83000183Z" style="fill:#62bb46; stroke-width:0px;"></path>
    <path d="m97.66000366,41.93999863h-1.43000031l-2.77999878-4h-.48999786v4h-1.18000031v-9.45999908h1.43000031c.83999634,0,1.73999786.00999832,2.5.43999863.79000092.45999908,1.23999786,1.34999847,1.23999786,2.25999832,0,1.34999847-.90000153,2.47999954-2.26999664,2.65000153l2.97999573,4.11000061Zm-4.71000671-4.97999954h.37999725c1.19999695,0,2.51000214-.22999954,2.51000214-1.72999954,0-1.47999954-1.40000153-1.68999863-2.56999969-1.68999863h-.30999756v3.41999817h-.01000214Z" style="fill:#62bb46; stroke-width:0px;"></path>
    <path d="m106.09999847,34.29000092c-.68000031-.59999847-1.61000061-.93000031-2.5-.93000031-2.12000275,0-3.73999786,1.77000046-3.73999786,3.86000061,0,2.06999969,1.61000061,3.84000015,3.70999908,3.84000015.93000031,0,1.81999969-.34999847,2.51999664-.97999954v1.38999939c-.73000336.43000031-1.66000366.66999817-2.48000336.66999817-2.69999695,0-4.93000031-2.15000153-4.93000031-4.88000107,0-2.79999924,2.25-4.97999954,5.02999878-4.97999954.83000183,0,1.66999817.20000076,2.37999725.63999939v1.37000275h.01000977Z" style="fill:#62bb46; stroke-width:0px;"></path>
    <path d="m113.72000122,36.29999924v-3.81000137h1.18000031v9.45999908h-1.18000031v-4.54999542h-4.5v4.54000092h-1.18000031v-9.45999908h1.18000031v3.81000137h4.5v.00999451Z" style="fill:#62bb46; stroke-width:0px;"></path>
    <path d="m54.34000015,57.95999908h-1.18000031v-9.45999908h1.18000031v9.45999908Z" style="fill:#62bb46; stroke-width:0px;"></path>
    <path d="m56.61999893,48.04999924l7.09999847,7.43999863v-6.98999786h1.17999649v9.84999847l-7.09999847-7.43999863v7.04999924h-1.18000031s0-9.90999985.00000381-9.90999985Z" style="fill:#62bb46; stroke-width:0px;"></path>
    <path d="m71.41000366,50.29000092c-.34999847-.59000015-.80000305-.88999939-1.51999664-.88999939-.75,0-1.58000183.50999832-1.58000183,1.34000015,0,.74000168.73000336,1.13000107,1.31999969,1.34999847l.68000031.25999832c1.33999634.52999878,2.34999847,1.27000046,2.34999847,2.84999847,0,1.72000122-1.33000183,2.95000076-3.01999664,2.95000076-1.52999878,0-2.72000122-1.13000107-2.91999817-2.65000153l1.19000244-.25c-.01000214,1.04000092.81999969,1.79000092,1.83000183,1.79000092,1.01999664,0,1.73999786-.84999847,1.73999786-1.84000015,0-1.02000046-.81999969-1.45999908-1.62999725-1.79000092l-.65000153-.27999878c-1.08000183-.45999908-2.05999756-1.08000183-2.05999756-2.40000153,0-1.52999878,1.34999847-2.45000076,2.77999878-2.45000076,1.05000305,0,1.91999817.50999832,2.43000031,1.43000031l-.94001007.58000565Z" style="fill:#62bb46; stroke-width:0px;"></path>
    <path d="m77.12000275,57.95999908h-1.18000031v-8.38000107h-2.25v-1.07999802h5.66999817v1.08000183h-2.25v8.37999725h.01000214Z" style="fill:#62bb46; stroke-width:0px;"></path>
    <path d="m82.05999756,57.95999908h-1.18000031v-9.45999908h1.18000031v9.45999908Z" style="fill:#62bb46; stroke-width:0px;"></path>
    <path d="m87.01000214,57.95999908h-1.18000031v-8.38000107h-2.25v-1.07999802h5.66999817v1.08000183h-2.25v8.37999725h.01000214Z" style="fill:#62bb46; stroke-width:0px;"></path>
    <path d="m91.81999969,48.5v5.58000183c0,1.54000092.45999908,2.97000122,2.27999878,2.97000122s2.27999878-1.43000031,2.27999878-2.97000122v-5.58000183h1.18000031v5.97999954c0,2.07999802-1.29000092,3.68000031-3.45999908,3.68000031s-3.45999908-1.59000015-3.45999908-3.68000031v-5.97999954h1.18000031Z" style="fill:#62bb46; stroke-width:0px;"></path>
    <path d="m102.37000275,57.95999908h-1.18000031v-8.38000107h-2.25v-1.07999802h5.66999817v1.08000183h-2.25v8.37999725h.01000214Z" style="fill:#62bb46; stroke-width:0px;"></path>
    <path d="m106.18000031,48.5h5.08000183v1.08000183h-3.90000153v2.65000153h3.79000092v1.08000183h-3.79000092v3.58000183h3.90000153v1.08000183h-5.08000183v-9.47000885Z" style="fill:#62bb46; stroke-width:0px;"></path>
    <path d="m0,77.95999908c.33000001-.19000244.54000002-.48000336.54000002-.94000244v-12.33999634c0-.48000336-.20999998-.77000046-.54000002-.93999863h3.78999996c-.36000013.16999817-.53999996.4600029-.53999996.93999863v12.34000397c0,.45999908.19000006.75.53999996.94000244,0,0-3.78999996,0-3.78999996-.00000763Z" style="fill:#62bb46; stroke-width:0px;"></path>
    <path d="m12.85999966,64.87000275c-.64999962,0-4.03999996-.08000183-4.03999996-.08000183v4.80999756h3.26000023c.32999992,0,.67000008-.33000183.77000046-.58999634v2.22000122c-.10000038-.29000092-.43999958-.61000061-.77000046-.61000061h-3.26000023v6.40000153c0,.5.21000004.73000336.60999966.94000244h-3.88999939c.4000001-.20999908.63000011-.44000244.63000011-.94000244v-12.34000397c0-.48000336-.25-.77000046-.63000011-.93999863h8.89000034l.10000038,2.03000259c-.25000095-.51000214-.69000053-.88000488-1.67000103-.90000153Z" style="fill:#62bb46; stroke-width:0px;"></path>
    <path d="m22.5,71.33000183c-.69000053.30999756-2.54999924.73000336-4.15999985.15000153v5.54000092c0,.45999908.22999954.75.54000092.94000244h-3.78000069c.32999992-.19000244.59000015-.48000336.59000015-.94000244v-12.34000397c0-.48000336-.25-.77000046-.59000015-.93999863h4.75c4.19999886,0,5.22999954,2.17000198,5.22999954,3.8900032-.01000023,2.27999878-1.96999931,3.42999268-2.57999992,3.69999695Zm-3.10000038-6.61000061c-.62999916,0-1.06999969.01999664-1.06999969.01999664v5.87999725c.10000038.05999756.52000046.09999847.81999969.09999847,1.11000061,0,3.21999931-.40000153,3.21999931-3.09999847.00000191-1.55999756-.88999939-2.8999939-2.96999931-2.8999939Z" style="fill:#62bb46; stroke-width:0px;"></path>
    <path d="m36.63999939,78c-.79000092.01999664-1.49000168-.48000336-1.86000061-.98000336-.93999863-1.31999969-1.86000061-2.83999634-2.61000061-4.01999664-.54000092-.83999634-1.02000046-1.73999786-1.92000008-1.73999786-.25,0-.92000008.04000092-.92000008.04000092v5.70999908c0,.45999908.22999954.75.59000015.94000244h-3.79000092c.32999992-.19000244.54000092-.48000336.54000092-.94000244v-12.33000183c0-.48000336-.20999908-.77000046-.54000092-.93999863h4.52000046c4.32999802,0,5.31000137,2.1099968,5.31000137,3.50999832,0,2.26000214-2.04999924,3.38999939-3.52999878,3.48999786,1.41999817.15000153,2.04999924,1.11000061,2.36000061,1.56999969,0,0,2.52999878,3.94999695,3.24000168,4.80999756.41999817.48000336,1.34000015.83999634,1.34000015.83999634l-2.73000336.04000854Zm-6.1099987-13.26000214c-.62999916,0-1.21000099.04000092-1.21000099.04000092v5.45999908s.59000015.04000092.94000053.04000092c1.42000008,0,2.9299984-.79000092,2.9299984-2.91000366-.00999832-.95999146-.59000015-2.62999725-2.65999794-2.62999725Z" style="fill:#62bb46; stroke-width:0px;"></path>
    <path d="m38.47000122,77.95999908c.33000183-.19000244.54000092-.48000336.54000092-.94000244v-12.33999634c0-.48000336-.20999908-.77000046-.54000092-.93999863h3.79000092c-.36000061.16999817-.54000092.4600029-.54000092.93999863v12.34000397c0,.45999908.18999863.75.54000092.94000244,0,0-3.79000092,0-3.79000092-.00000763Z" style="fill:#62bb46; stroke-width:0px;"></path>
    <path d="m41.79999924,38.25999832V14.05000019c-10.51000023,4.92999935-17.43000031,15.18999958-19.73999977,28.31000042-1.62000084-1.77000046-3.53999901-3.56999969-5.48999977-5.09000015,4.71999931-12.43999863,13.18999863-20.73999977,25.22999954-23.95000076V.5h-16.11999893c-6.95000076,4.38000011-11.55000019,11.97999954-13.19999981,21.39999962-1.31999969-1.43000031-2.86999989-2.88999939-4.43999958-4.12000084C11.06999969,9.77999973,16.01000023,3.8900001,22.79999924.5H.55000001v2.48000002c3.48999995,2.51999998,6.31000012,5.70000029,8.35999984,9.5999999l-1.86999989,4.46000099c-.55000019-.40999985-2.07999992-1.39999962-2.07999992-1.39999962-.71000004-3.11999989-1.24000001-3.89000034-2.83999991-6.28999996-.48000014-.85000134-1.0200001-1.66000128-1.57000011-2.41000128v8.11999941c7.52999991,3.5,13.34000033,8.65999985,17.09999961,15.80999947l-2.30999947,5.50999832c-.68000031-.50999832-2.56999969-1.72999954-2.56999969-1.72999954-.86999989-3.86000061-1.52999973-4.80999947-3.51000023-7.77000046-2.32999992-4.14999962-5.30000019-7.27000046-8.71000004-9.68000031v13.45000076c11.81999969,3.61000061,20.90000057,10.70999908,26.95999813,21.61999893l-2.73999786,5.73000336h1.86000061c3.49999809-8.43999863,8.45999908-15.09000015,15.16999817-19.74000168ZM7.28000021,6.38000011c0-1.47000027,1.19000006-2.67000008,2.6500001-2.67000008s2.64999962,1.19999981,2.64999962,2.67000008-1.19000053,2.67000008-2.64999962,2.67000008c-1.46000004,0-2.6500001-1.20000029-2.6500001-2.67000008Zm8.01999998,17.1600008c0-1.84000015,1.46000004-3.32999992,3.25999928-3.32999992,1.78999901,0,3.26000023,1.5,3.26000023,3.32999992,0,1.84000015-1.45999908,3.32999992-3.26000023,3.32999992-1.79999924.00999832-3.25999928-1.49000168-3.25999928-3.32999992Zm13.32999897,23.80999756c-2.17000008,0-3.94000053-1.81000137-3.94000053-4.02999878,0-2.22000122,1.77000046-4.04000092,3.94000053-4.04000092s3.94000053,1.81000137,3.94000053,4.04000092c0,2.22000122-1.77000046,4.02999878-3.94000053,4.02999878Z" style="fill:#62bb46; stroke-width:0px;"></path>
    <path d="m.55000001,31.73999977v26.26000023h21.15000075c-3.8900013-12.90000153-11.12000084-21.36999893-21.15000075-26.26000023Z" style="fill:#62bb46; stroke-width:0px;"></path>
    <path d="m41.79999924,58v-13.66999817c-3.02999878,4.13999939-5.31999969,8.65000153-6.88999939,13.66999817h6.88999939Z" style="fill:#62bb46; stroke-width:0px;"></path>
  </g>
</svg>
