<svg width="203" height="202" viewBox="0 0 203 202" fill="none" xmlns="http://www.w3.org/2000/svg">
<g clip-path="url(#clip0_7_566)">
<path d="M167.569 79.8523C171.753 76.1218 172.761 74.7607 175.534 69.9212C178.811 66.3923 180.877 63.9222 183.701 60.0405C194.489 52.4787 197.009 33.0197 185.062 25.5084C178.962 19.1061 172.56 14.0649 165.704 8.82209C160.309 5.29327 155.621 -0.352852 148.311 0.201678C135.104 -1.46191 129.155 8.82209 122.702 17.7954C118.165 22.8366 115.191 27.6761 109.999 32.2132C107.428 36.2965 103.747 38.6659 99.0592 39.3212C87.6661 41.6906 78.844 33.5743 70.6773 26.7687C66.9973 23.744 64.8296 21.6267 60.8974 18.5012C55.6042 14.317 50.4622 9.83033 43.3541 9.57827C30.9528 10.9898 24.0968 17.4425 17.0896 27.2224C5.44447 40.4807 -9.427 56.6125 7.86424 72.4922C14.3169 78.3399 20.6184 83.734 27.6761 88.6239C39.3716 95.2279 44.0095 111.511 35.4395 122.702C31.0032 127.844 26.9703 132.079 23.3911 137.574C20.2655 141.355 17.9466 143.623 14.6698 147.001C11.0906 152.647 9.88071 159.856 10.3344 166.359C12.0484 173.164 17.5433 177.55 22.9374 181.23C27.7769 185.919 32.5156 189.145 37.8592 193.329C48.4457 207.243 65.8882 203.16 76.5251 189.901C80.1043 185.415 81.5159 185.011 84.3389 179.819C92.9089 170.14 102.286 157.89 117.308 163.687C121.442 166.258 124.013 167.518 128.197 170.997C133.591 175.483 137.372 179.063 142.615 183.701C146.396 186.221 149.118 189.347 153.101 191.615C159.503 193.934 166.863 193.027 172.66 189.498C176.895 187.229 179.163 183.801 181.684 180.071C188.338 172.963 190.103 168.375 197.816 160.209C207.747 148.765 200.488 133.843 190.254 126.08C186.927 122.601 184.356 120.787 180.02 118.367C176.592 115.04 174.122 112.922 170.19 110.099C161.973 102.84 160.057 88.271 167.418 79.7515L167.569 79.8523Z" fill="#ACAC97"/>
</g>
<defs>
<clipPath id="clip0_7_566">
<rect width="202.655" height="202" fill="white"/>
</clipPath>
</defs>
</svg>
