<svg fill="none" height="202" viewBox="0 0 166 202" width="166" xmlns="http://www.w3.org/2000/svg" xmlns:xlink="http://www.w3.org/1999/xlink"><clipPath id="a"><path d="m0 0h166v202h-166z"/></clipPath><g clip-path="url(#a)" fill="#ffad00"><path d="m152.542 16.1315c2.674 2.139 5.481 3.8323 8.333 5.3029.357.1782.758 0 .891-.312 8.468-23.70701 4.947-26.55898-16.265-13.05666-.312.17825-.357.62387-.134.9358 2.094 2.54006 4.412 4.94636 7.175 7.12996z"/><path d="m6.28349 172.01c3.92161 3.074 7.88781 6.194 11.80941 9.269.6239-.669 1.2478-1.293 1.8717-1.961 8.3779-8.779 16.1766-18.092 23.7524-27.54 7.7096-9.625 15.1963-19.384 22.7276-29.143 7.754-10.027 15.5527-20.098 23.3068-30.1241 7.7987-10.071 15.5976-20.1866 23.4406-30.2577 7.799-10.071 15.597-20.1866 23.44-30.2576.134-.1337.312-.1337.491-.2228-1.114-.9804-2.228-1.9608-3.253-2.9857l-7.309-7.531-.98.1783-12.523 15.6412-12.522 15.7305-12.3443 15.8641-12.7898 15.5521-12.4779 14.9729c-.2674.3119-.5347.6239-.7576.9808l-10.6061 14.571c-.5794.802-1.2033 1.56-1.8717 2.273l-9.0019 9.447c-2.5847 2.718-4.9911 5.57-7.2639 8.556l-8.6899 11.542-12.2105 15.908-7.13019 9.18c.26738.045.57933.178.84671.401z"/><path d="m152.675 42.8687-8.823-5.8822c-1.426-.9358-2.763-2.0053-4.1-3.0302-.089.2228-.089.4456-.223.6239-.98 1.2477-1.961 2.4954-2.897 3.7432-7.798 10.071-15.597 20.1866-23.44 30.2577-7.799 10.071-15.5974 20.1866-23.4406 30.2576-7.7541 10.0263-15.5527 20.0973-23.3068 30.1243-7.4867 9.67-14.9734 19.384-22.683 28.92-7.2193 8.868-14.706 17.513-22.6384 25.757 4.2782 3.343 8.5563 6.729 12.8344 10.071l5.0803-5.704c1.6043-1.782 3.0749-3.698 4.5009-5.659l8.7791-12.388c.4902-.713 1.0249-1.382 1.6043-2.005l7.8877-8.779c3.0749-3.431 5.927-7.086 8.5117-10.918l6.3726-9.492c.6239-.935 1.337-1.871 2.1391-2.673l11.8985-12.923c.3565-.401.713-.802 1.025-1.204l11.8542-15.195 11.141-15.4633c.401-.5793.846-1.114 1.292-1.6042l11.988-13.7697c.356-.4011.668-.8021.98-1.2032l11.631-15.4185 12.122-16.0423v-.4456z"/><path d="m17.0679 185.378c-4.7683-3.119-9.26924-6.639-13.41367-10.516-.17825-.179-.26738-.312-.35651-.491l-1.60429 2.095c-.935841 1.158-1.470606 2.584-1.648861 4.055-.178255 1.783.222819 3.52 1.203221 4.902l.31195.445c4.63463 6.729 10.91816 12.077 18.31566 15.508 1.9163.891 4.189.891 6.1944-.044l.5348-.268c.9804-.445 1.8716-1.114 2.6292-1.961l2.1837-2.45c-4.7684-3.744-9.5367-7.487-14.3496-11.23z"/></g></svg>