<svg width="257" height="202" viewBox="0 0 257 202" fill="none" xmlns="http://www.w3.org/2000/svg">
<g clip-path="url(#clip0_7_563)">
<path d="M256.505 83.7674V83.4068C255.424 78.6672 251.457 73.9791 246.563 73.6185C244.502 73.4639 242.493 73.9276 240.484 74.4943C238.938 74.9064 236.671 75.6792 235.435 74.3912C233.889 72.5881 234.147 69.1365 234.095 66.6636C234.508 62.5422 234.095 58.4724 234.198 54.2994C234.198 53.8873 234.198 53.4752 234.095 53.063C233.735 52.0842 232.55 51.7236 231.468 51.5175C224.204 50.1265 216.476 50.2296 209.109 50.075C201.279 49.8689 193.448 50.075 185.617 50.075C155.789 50.075 125.96 48.9931 96.1316 47.2415C84.8493 46.5718 73.67 45.3354 62.3876 44.8202C56.7207 44.5626 51.0023 44.4081 45.2838 44.4081C39.926 44.4081 34.5167 44.9748 29.1589 44.5626C28.8498 44.5626 28.5407 44.5626 28.2831 44.5626C27.6134 44.7687 27.3042 45.593 27.0982 46.2627C26.48 48.478 26.686 50.2296 26.6345 52.4448C26.583 55.2268 26.0163 58.1632 25.6557 60.9452C25.3981 62.3362 25.0375 63.9332 23.8526 64.809C22.9253 65.5302 21.5858 65.6333 20.4009 65.6333C9.42768 64.7575 -3.96686 73.5155 0.927302 85.313C2.6789 89.4859 6.07905 92.4224 9.37617 95.6164C12.5187 98.7075 15.4037 102.056 18.9584 104.323C20.4009 105.353 21.9464 106.487 22.6162 108.187C24.0071 111.741 22.3586 117.357 22.3071 121.118C22.204 126.939 22.3071 132.812 22.5131 138.634C22.9768 150.328 24.1617 161.971 26.0163 173.511C26.5315 176.808 27.1497 180.208 28.6437 183.196C31.4772 188.966 37.2986 192.83 43.4292 194.736C49.5598 196.642 56.051 196.848 62.4907 197.054C86.1887 197.879 109.887 198.548 133.636 199.321C156.046 200.042 180.311 204.112 202.567 200.661C217.867 199.991 222.659 194.685 228.171 180.826C233.529 168.102 232.704 154.295 232.807 140.952C232.292 131.936 231.52 122.354 233.838 113.441C238.32 101.644 258.206 98.1923 256.505 83.7674ZM24.5223 96.0286C24.4193 96.3892 24.2647 96.8013 23.9556 97.0074C22.4616 97.2135 21.3282 95.3073 20.1948 94.5346C16.2795 90.9284 10.5096 88.404 8.96403 83.0977C8.80948 80.7279 8.70644 77.4308 10.7156 75.1125C12.7248 72.7942 15.9704 72.073 18.5978 73.3609C21.4828 75.0095 25.5011 76.9156 25.1405 80.6249C25.0375 81.8613 24.8314 83.2523 24.8314 84.2311V84.5402C24.7284 87.9919 24.986 92.5769 24.5738 95.9771L24.5223 96.0286ZM248.623 85.313C248.469 85.7251 247.438 86.7039 247.335 87.1161V87.3736C243.884 91.1859 239.762 94.8437 235.898 98.2438C232.859 100.408 234.044 94.6376 234.147 93.1436C234.456 90.9284 233.374 87.7343 234.404 85.4675C235.332 83.7159 236.929 83.2523 238.732 82.3765C241.102 81.5007 244.45 79.9551 246.666 80.8825C248.005 81.8613 249.087 83.8705 248.623 85.2614V85.313Z" fill="#FF8300"/>
<path d="M31.7863 38.2775C36.1137 38.0714 40.6473 38.8442 44.9747 38.9987C49.9719 39.2048 55.0206 39.2563 60.0693 39.2563C69.9607 39.2563 79.9036 39.0503 89.7949 39.2563C116.069 39.823 142.137 43.9444 168.359 41.5746H169.75C170.214 41.5746 170.935 41.7292 171.399 41.6777C177.581 41.6777 183.66 41.5231 189.739 42.1928C196.23 42.9141 202.773 42.0898 209.264 43.1201C215.188 43.8414 220.958 43.8414 226.831 44.6141C228.428 44.8202 230.077 45.0263 231.674 44.9748C232.035 44.9748 232.447 44.9233 232.653 44.6141C232.756 44.4596 232.807 44.202 232.807 43.9959C233.013 40.9564 232.292 37.7108 231.88 34.6713C231.468 31.6317 229.098 28.6952 226.831 26.8406C219.001 21.8434 209.109 19.8858 199.991 18.7009C185.823 17.2069 171.759 14.8371 157.489 14.631C155.171 14.4249 153.574 12.7248 152.698 10.6126C151.41 7.6246 149.813 4.27597 147.082 2.52437C137.294 -2.47282 125.703 1.54554 115.348 2.47286C111.793 3.14258 110.041 6.49122 108.753 9.89137C107.981 11.9521 106.693 14.0643 104.426 14.5795C102.262 15.1462 99.9439 14.9401 97.7286 14.8886C81.5521 14.2704 64.9635 15.6098 48.6325 15.8159H48.2718C42.2443 16.228 35.6501 18.5978 32.1984 23.9041C29.674 27.5619 29.5195 31.4772 29.3649 35.7531C29.3649 36.5259 29.3649 37.4017 29.9316 37.9169C30.3953 38.329 31.1165 38.3805 31.7863 38.329V38.2775ZM118.799 8.1913C122.096 6.4397 125.857 5.56391 129.566 5.61542C132.864 5.61542 136.109 4.73963 139.406 5.46087C141.776 5.97604 144.558 7.3155 145.485 9.6853C145.588 9.89137 145.743 10.355 145.897 10.8702C146.361 12.2612 146.979 14.3219 146.722 14.5795C144.197 15.6613 140.9 14.0128 138.17 14.2188C130.236 13.9097 124.363 14.8371 116.945 15.1462C116.12 15.1462 114.935 15.0431 114.678 14.2188C114.266 11.4369 116.481 9.32468 118.748 8.13978L118.799 8.1913Z" fill="#FF8300"/>
</g>
<defs>
<clipPath id="clip0_7_563">
<rect width="256.609" height="202" fill="white"/>
</clipPath>
</defs>
</svg>
